<svg viewBox="0 0 800 175.02" xmlns="http://www.w3.org/2000/svg" xmlns:xlink="http://www.w3.org/1999/xlink" overflow="hidden"><g fill="#FFFFFF"><path d="M145.74 175 29.27 175C13.1177 174.978 0.0275398 161.892 4.57764e-07 145.74L1.06581e-14 29.28C0.0110239 13.1176 13.1076 0.0165455 29.27 6.86646e-07L145.74 1.42109e-14C161.896 0.0275526 174.983 13.1238 175 29.28L175 145.74C174.967 161.886 161.886 174.967 145.74 175ZM29.27 8.56C17.8329 8.57103 8.56551 17.8428 8.56 29.28L8.56 145.74C8.56551 157.177 17.8329 166.449 29.27 166.46L145.74 166.46C157.179 166.449 166.449 157.179 166.46 145.74L166.46 29.28C166.449 17.8412 157.179 8.57103 145.74 8.56Z"/><path d="M390.83 45.63 390.83 119.55 369.11 119.55 369.11 108.61C366.859 112.414 363.57 115.498 359.63 117.5 355.346 119.688 350.59 120.79 345.78 120.71 339.782 120.834 333.876 119.216 328.78 116.05 323.745 112.795 319.747 108.166 317.26 102.71 314.389 96.4405 312.967 89.6045 313.1 82.71 312.975 75.7325 314.396 68.8138 317.26 62.45 319.746 56.8553 323.764 52.0781 328.85 48.67 333.873 45.3903 339.762 43.6873 345.76 43.78 350.588 43.7006 355.355 44.8573 359.61 47.14 363.535 49.2144 366.815 52.3278 369.09 56.14 369.09 50.341 373.791 45.64 379.59 45.64ZM364.74 98.41C367.647 94.71 369.103 89.3767 369.11 82.41 369.117 75.4433 367.66 70.0733 364.74 66.3 361.82 62.56 357.64 60.69 352.2 60.69 346.76 60.69 342.53 62.6333 339.51 66.52 336.503 70.3867 335 75.7667 335 82.66 335 89.5533 336.483 94.8267 339.45 98.48 342.41 102.12 346.663 103.943 352.21 103.95 357.643 103.983 361.82 102.137 364.74 98.41Z"/><path d="M451.48 45.34 451.33 65.46C447.96 63.8614 444.28 63.0217 440.55 63 434.71 63 430.263 64.58 427.21 67.74 424.157 70.9 422.623 75.2967 422.61 80.93L422.61 119.57 400.61 119.57 400.61 66.77C400.656 59.706 400.265 52.6458 399.44 45.63L407.38 45.63C414.654 45.6284 420.771 51.0836 421.6 58.31 423.252 53.8914 426.299 50.1316 430.28 47.6 434.276 45.1018 438.908 43.8101 443.62 43.88 446.314 43.8037 448.993 44.3014 451.48 45.34Z"/><path d="M536.8 119.55 509.8 119.55 480.8 86.45 480.8 119.55 458.8 119.55 458.8 12.24 464.7 12.24C473.599 12.2455 480.81 19.4611 480.81 28.36L480.81 77.41 508.51 45.77 534.9 45.77 503.56 81.2Z"/><path d="M646 45.63 667.28 45.63 637.39 119.55 633.39 119.55C624.618 119.554 616.744 114.173 613.56 106L602.08 76.68 586.08 119.55 582.08 119.55C573.217 119.578 565.229 114.214 561.9 106L537.5 45.63 560 45.63 577.74 93.3 595.38 45.63 610.38 45.63 628.17 93.74Z"/><path d="M734.61 84.41 685.91 84.41C686.297 91.31 688.097 96.34 691.31 99.5 694.523 102.66 699.283 104.24 705.59 104.24 709.461 104.23 713.305 103.588 716.97 102.34L717.08 102.34C723.231 100.221 729.962 103.301 732.38 109.34L733.3 111.67C729.424 114.684 725.013 116.937 720.3 118.31 715.223 119.891 709.937 120.7 704.62 120.71 692.18 120.71 682.413 117.283 675.32 110.43 668.227 103.577 664.663 94.2233 664.63 82.37 664.508 75.413 666.083 68.531 669.22 62.32 672.12 56.613 676.598 51.8582 682.12 48.62 687.831 45.3148 694.333 43.6245 700.93 43.73 711.33 43.73 719.543 47.11 725.57 53.87 731.597 60.63 734.597 69.74 734.57 81.2ZM691.38 62.83C688.8 65.2633 687.133 68.81 686.38 73.47L715.68 73.47C714.52 63.95 709.807 59.19 701.54 59.19 697.805 59.0123 694.152 60.3211 691.38 62.83Z"/><path d="M746.52 119.55 746.52 12.24 752.42 12.24C761.319 12.2455 768.53 19.4611 768.53 28.36L768.53 119.55Z"/><path d="M778 119.55 778 12.24 783.9 12.24C792.795 12.251 800 19.465 800 28.36L800 119.55Z"/><path d="M228.52 140.15 228.52 153.77 240.14 148 251.77 153.81 251.77 128.28C243 130.1 232.91 133.51 228.52 140.15Z"/><path d="M271 44.37C269.61 44.22 268.27 44.14 267 44.11L266.82 44.11 265.82 44.11C261.042 44.0707 256.298 44.9043 251.82 46.57 248.825 47.6212 246.004 49.1144 243.45 51 239.574 46.8351 234.14 44.4696 228.45 44.47L228.45 95.59C228.37 111.04 228.54 129.06 228.45 131.59 237.69 123.94 252.72 121.59 264.45 120.35 276.18 119.11 286.24 115.35 293.37 109.35 301.47 102.57 305.59 93.28 305.59 81.71 305.6 58.51 288.2 46.23 271 44.37ZM278.51 98.93C275.59 102.63 271.41 104.48 265.97 104.48 260.53 104.48 256.263 102.653 253.17 99 250.21 95.3467 248.73 90.0733 248.73 83.18 248.73 76.2867 250.237 70.8933 253.25 67 256.257 63.1067 260.483 61.16 265.93 61.16 271.377 61.16 275.557 63.0333 278.47 66.78 281.377 70.52 282.833 75.89 282.84 82.89 282.847 89.89 281.39 95.2367 278.47 98.93Z"/><path d="M56.78 130.52 56.78 144.82 69 138.72 81.2 144.82 81.2 118.06C72 120 61.39 123.55 56.78 130.52Z"/><path d="M101.35 30C99.89 29.84 98.48 29.76 97.09 29.73L96.9 29.73 95.9 29.73C90.9005 29.6931 85.9361 30.5674 81.25 32.31 78.1135 33.4232 75.1635 35.0044 72.5 37 68.4314 32.5848 62.7039 30.0691 56.7 30.06L56.7 83.73C56.62 99.95 56.8 118.88 56.7 121.52 66.41 113.52 82.19 110.99 94.51 109.72 106.83 108.45 117.38 104.46 124.87 98.21 133.38 91.1 137.7 81.33 137.7 69.21 137.71 44.8 119.45 31.91 101.35 30ZM109.23 87.29C106.17 91.17 101.78 93.11 96.06 93.11 90.24 93.11 85.7767 91.1967 82.67 87.37 79.5633 83.5433 78.0067 77.99 78 70.71 78 63.47 79.58 57.8033 82.74 53.71 85.9 49.6167 90.34 47.58 96.06 47.6 101.78 47.6 106.17 49.5633 109.23 53.49 112.29 57.4167 113.82 63.0567 113.82 70.41 113.82 77.75 112.29 83.36 109.23 87.24Z"/></g></svg>